HIERARCHY
ROOT hip
{
	OFFSET 0.000000 0.000000 0.000000 
	CHANNELS 6 Xposition Yposition Zposition Xrotation Zrotation Yrotation
	JOINT abdomen
	{
		OFFSET 0.000000 3.402643 0.000000 
		CHANNELS 3 Xrotation Zrotation Yrotation
		JOINT chest
		{
			OFFSET 0.000000 8.438565 -0.680529 
			CHANNELS 3 Xrotation Zrotation Yrotation
			JOINT neck
			{
				OFFSET 0.000000 10.207942 -0.272212 
				CHANNELS 3 Xrotation Zrotation Yrotation
				JOINT head
				{
					OFFSET 0.000000 3.130431 0.000000 
					CHANNELS 3 Xrotation Zrotation Yrotation
					End Site
					{
						OFFSET 0.000000 3.130435 0.000000 
					}
				}
			}
			JOINT lCollar
			{
				OFFSET 3.470700 6.669187 -0.816635 
				CHANNELS 3 Yrotation Zrotation Xrotation
				JOINT lShldr
				{
					OFFSET 3.198488 0.000000 0.000000 
					CHANNELS 3 Zrotation Yrotation Xrotation
					JOINT lForeArm
					{
						OFFSET 10.139888 0.000000 0.000000 
						CHANNELS 3 Yrotation Zrotation Xrotation
						JOINT lHand
						{
							OFFSET 8.370511 0.000000 0.000000 
							CHANNELS 3 Zrotation Yrotation Xrotation
							End Site
							{
								OFFSET 4.083176 0.000000 0.000000 
							}
						}
					}
				}
			}
			JOINT rCollar
			{
				OFFSET -3.470700 6.669187 -0.816635 
				CHANNELS 3 Yrotation Zrotation Xrotation
				JOINT rShldr
				{
					OFFSET -3.198488 0.000000 0.000000 
					CHANNELS 3 Zrotation Yrotation Xrotation
					JOINT rForeArm
					{
						OFFSET -10.139888 0.000000 0.000000 
						CHANNELS 3 Yrotation Zrotation Xrotation
						JOINT rHand
						{
							OFFSET -8.370511 0.000000 0.000000 
							CHANNELS 3 Zrotation Yrotation Xrotation
							End Site
							{
								OFFSET -4.083176 0.000000 0.000000 
							}
						}
					}
				}
			}
		}
	}
	JOINT lThigh
	{
		OFFSET 5.308129 -1.633274 1.361059 
		CHANNELS 3 Xrotation Zrotation Yrotation
		JOINT lShin
		{
			OFFSET -2.041588 -20.007561 0.000000 
			CHANNELS 3 Xrotation Zrotation Yrotation
			JOINT lFoot
			{
				OFFSET 0.000000 -19.190928 -1.224953 
				CHANNELS 3 Xrotation Yrotation Zrotation
				End Site
				{
					OFFSET 0.000000 -2.449906 4.627600 
				}
			}
		}
	}
	JOINT rThigh
	{
		OFFSET -5.308129 -1.633274 1.361059 
		CHANNELS 3 Xrotation Zrotation Yrotation
		JOINT rShin
		{
			OFFSET 2.041588 -20.007561 0.000000 
			CHANNELS 3 Xrotation Zrotation Yrotation
			JOINT rFoot
			{
				OFFSET 0.000000 -19.190928 -1.224953 
				CHANNELS 3 Xrotation Yrotation Zrotation
				End Site
				{
					OFFSET 0.000000 -2.449906 4.627600 
				}
			}
		}
	}
}
MOTION
Frames: 8
Frame Time: 0.016667
-0.452457 19.016054 -43.215012 20.455299 1.363360 23.946100 -10.847100 -3.671740 -6.798000 12.858600 3.251740 -3.134450 8.342640 -12.380800 7.115980 13.984100 1.826170 3.204480 2.000000 -2.000000 0.000000 -10.722500 -84.879997 130.552994 18.330299 -0.344627 0.043057 0.045118 -0.012458 -141.375000 -2.000000 2.000000 0.000000 -89.631599 123.992996 25.049601 -22.295200 0.341344 0.051871 -0.076601 0.061929 -159.626999 -66.703079 26.695911 17.220591 126.290512 -7.600412 4.896394 -40.252697 -18.832426 -15.938468 -28.012659 -53.393459 -42.463043 130.245041 7.148832 -4.447704 -39.134987 34.406246 17.988720 
-0.306843 19.122213 -43.559666 20.102900 1.283920 23.614500 -11.039700 -3.495890 -6.405940 12.379700 3.199630 -2.939810 8.047790 -12.493000 6.918890 13.856500 1.750170 3.069900 2.000000 -2.000000 0.000000 -9.456690 -84.025398 133.667007 20.136900 -0.343207 0.047127 0.046573 -0.024867 -145.837997 -2.000000 2.000000 0.000000 -91.267799 123.745003 23.310200 -22.099899 0.341520 0.051439 -0.076611 0.061954 -159.636993 -66.840897 25.945463 17.097652 125.960243 -7.544687 4.916995 -40.231701 -18.057489 -15.641479 -28.862316 -53.206734 -41.847603 130.077545 7.153750 -4.492109 -39.549847 33.589554 18.042683 
-0.160546 19.273533 -43.905777 19.847799 1.139020 23.145599 -11.157100 -3.250550 -5.911420 12.008400 3.157960 -2.691040 7.501600 -12.707000 6.637900 13.621000 1.617080 2.903220 2.000000 -2.000000 0.000000 -7.301970 -83.222298 135.003998 21.748301 -0.341833 0.050718 0.047513 -0.030255 -147.791000 -2.000000 2.000000 0.000000 -93.292603 123.194000 21.426701 -22.168200 0.341458 0.051590 -0.077069 0.063037 -160.056000 -67.142952 25.188442 16.878889 125.493263 -7.456389 4.928295 -39.984364 -17.361013 -15.234947 -30.276449 -52.943535 -40.783894 129.780167 7.121274 -4.501122 -39.309326 33.262428 17.813116 
-0.023241 19.505848 -44.254478 19.573299 0.984552 22.527901 -11.027400 -3.434290 -5.494670 11.895800 2.529460 -2.406270 7.304500 -12.415000 6.286340 13.601600 1.636470 2.739910 2.000000 -2.000000 0.000000 -2.519510 -82.042801 133.675003 23.340099 -0.340377 0.054226 0.047782 -0.031624 -148.289001 -2.000000 2.000000 0.000000 -94.267799 121.959000 19.406401 -22.187700 0.341441 0.051633 -0.077678 0.064443 -160.602997 -67.307709 24.565580 16.912508 124.848534 -7.315069 4.927469 -39.672752 -16.512371 -14.685246 -31.920654 -52.528858 -39.444180 129.233582 7.043796 -4.528632 -37.797398 33.701000 17.014460 
0.139888 19.787256 -44.627888 19.532801 0.708683 21.999599 -11.007800 -2.961930 -4.889870 11.797600 2.596360 -2.108470 6.428860 -12.377900 5.760560 13.151900 1.591320 2.455640 2.000000 -2.000000 0.000000 -0.175592 -81.447403 133.421005 24.648701 -0.339107 0.057078 0.047962 -0.032508 -148.610992 -2.000000 2.000000 0.000000 -96.695702 120.827003 15.490100 -22.490499 0.341166 0.052302 -0.078390 0.066041 -161.227997 -67.967422 23.513767 16.712093 124.053505 -7.165833 4.956705 -39.399036 -14.897513 -13.808598 -34.076794 -52.134750 -37.884056 128.527664 6.914553 -4.544292 -35.261593 34.551361 15.667785 
0.298657 20.162466 -44.998493 18.780001 0.480779 21.325701 -10.984200 -3.063700 -4.419330 11.283800 1.917980 -1.767990 5.917940 -11.665200 5.069060 12.889000 1.728110 2.176430 2.000000 -2.000000 0.000000 2.411000 -80.284302 134.054001 26.308901 -0.337403 0.060654 0.048989 -0.037126 -150.300995 -2.000000 2.000000 0.000000 -97.848900 120.021004 13.127400 -22.158501 0.341467 0.051569 -0.077612 0.064292 -160.544998 -67.595192 22.871683 16.705135 123.100441 -6.948999 4.961063 -39.130459 -13.600438 -13.001172 -35.644493 -51.209030 -36.188194 127.481697 6.715253 -4.563806 -32.259251 35.244110 14.014620 
0.428644 20.601595 -45.350338 17.675900 0.232615 20.279200 -10.983300 -3.022950 -3.759830 10.661100 1.404580 -1.348440 5.265360 -10.756100 4.282150 12.578000 1.961970 1.879600 2.000000 -2.000000 0.000000 5.088040 -79.004204 134.473007 27.959299 -0.335607 0.064158 0.050483 -0.042925 -152.438995 -2.000000 2.000000 0.000000 -99.099998 119.253998 10.833100 -21.816700 0.341772 0.050812 -0.077037 0.062962 -160.026993 -66.509872 22.998243 17.038095 122.035347 -6.701315 4.951588 -38.983562 -12.582259 -12.286302 -37.328033 -49.697006 -34.013096 126.325371 6.492623 -4.587288 -30.095264 35.383678 12.812545 
0.541772 21.066113 -45.696339 16.767599 -0.140256 19.059299 -11.049000 -2.851550 -3.025640 10.086100 1.065940 -0.919604 4.512840 -9.742120 3.426470 12.189200 2.235420 1.553860 2.000000 -2.000000 0.000000 7.020400 -77.576599 135.556000 29.629200 -0.333688 0.067650 0.052152 -0.048534 -154.529007 -2.000000 2.000000 0.000000 -100.477997 118.467003 8.421640 -21.357700 0.342175 0.049794 -0.076172 0.060893 -159.225998 -65.691223 23.322227 17.462206 120.890907 -6.432852 4.953279 -38.894157 -10.971526 -11.277199 -39.245567 -48.026466 -31.882513 125.219269 6.306961 -4.625685 -29.352213 35.135765 12.453760 
